<svg width="20" height="20" viewBox="0 0 20 20" fill="none" xmlns="http://www.w3.org/2000/svg">
<path fill-rule="evenodd" clip-rule="evenodd" d="M17.1187 3.94706C16.2268 2.94916 15.041 2.40002 13.7794 2.40002C12.5178 2.40002 11.459 2.94916 10.5667 3.94706L9.99997 4.85223L9.43333 3.94706C8.5413 2.94916 7.48219 2.40002 6.22076 2.40002C4.95938 2.40002 3.7731 2.94916 2.88115 3.94706C1.03962 6.00735 1.03962 9.35953 2.88115 11.419L9.47989 17.7609C9.58778 17.8821 9.72209 17.9563 9.86242 17.9848C9.90948 17.9952 9.95681 18 10.0042 18C10.1909 18 10.3779 17.9204 10.5201 17.7609L17.1188 11.419C18.9604 9.35953 18.9604 6.00735 17.1187 3.94706Z" fill="white"/>
</svg>
