<svg width="20" height="20" viewBox="0 0 20 20" fill="none" xmlns="http://www.w3.org/2000/svg">
<path fill-rule="evenodd" clip-rule="evenodd" d="M3 6V4C3 3.44772 3.44772 3 4 3H18C18.5523 3 19 3.44772 19 4V14C19 14.5523 18.5523 15 18 15H16V17C16 17.5523 15.5523 18 15 18H1C0.447715 18 0 17.5523 0 17V7C0 6.44772 0.447715 6 1 6H3ZM15 15H4C3.44772 15 3 14.5523 3 14V7H1V17H15V15ZM4 4V14H18V4H4ZM18 14H4V13L7 10L10 12L14 8L18 13V14ZM9.5 9C8.67157 9 8 8.32843 8 7.5C8 6.67157 8.67157 6 9.5 6C10.3284 6 11 6.67157 11 7.5C11 8.32843 10.3284 9 9.5 9Z" fill="white"/>
</svg>
